<?xml version="1.0" encoding="iso-8859-1"?>
<!-- Generator: Adobe Illustrator 18.1.1, SVG Export Plug-In . SVG Version: 6.00 Build 0)  -->
<svg version="1.1" id="Capa_1" xmlns="http://www.w3.org/2000/svg" xmlns:xlink="http://www.w3.org/1999/xlink" x="0px" y="0px"
	 viewBox="0 0 362.201 362.201" style="enable-background:new 0 0 362.201 362.201;" xml:space="preserve">
<g>
	<g>
		<path style="fill:#010002;" d="M181.1,97.567c-46.064,0-83.536,37.472-83.536,83.536s37.472,83.536,83.536,83.536
			s83.536-37.472,83.536-83.536S227.165,97.567,181.1,97.567z M181.1,252.706c-39.483,0-71.602-32.12-71.602-71.602
			s32.12-71.602,71.602-71.602s71.602,32.12,71.602,71.602S220.583,252.706,181.1,252.706z"/>
		<path style="fill:#010002;" d="M362.201,199.004v-35.801h-75.302c-2.667-16.015-8.891-31.016-18.342-44.238l53.254-53.254
			L296.5,40.393l-53.254,53.26c-13.229-9.452-28.229-15.675-44.244-18.348V0.003H163.2v75.296
			c-16.015,2.673-31.016,8.897-44.238,18.348l-53.26-53.26L40.384,65.704l53.26,53.26c-9.452,13.223-15.675,28.223-18.348,44.238H0
			v35.801h75.296c2.673,16.015,8.897,31.016,18.348,44.238l-53.26,53.266l25.311,25.311l53.26-53.266
			c13.223,9.457,28.223,15.681,44.238,18.348v75.296h35.801v-75.296c16.015-2.667,31.01-8.891,44.238-18.348l53.266,53.26
			l25.311-25.311l-53.26-53.26c9.457-13.229,15.681-28.223,18.348-44.238H362.201z M252.59,244.155l52.341,52.341l-8.437,8.437
			l-52.341-52.341c-15.436,13.628-35.258,22.316-57.085,23.677v73.995h-11.934v-73.995c-21.827-1.36-41.649-10.042-57.085-23.677
			L65.707,304.94l-8.437-8.437l52.341-52.347c-13.634-15.436-22.316-35.258-23.677-57.085H11.934v-11.934h73.995
			c1.36-21.827,10.042-41.649,23.677-57.085L57.264,65.71l8.437-8.437l52.341,52.341c15.436-13.634,35.264-22.316,57.085-23.677
			V11.937h11.934v73.995c21.827,1.36,41.649,10.042,57.091,23.677l52.335-52.341l8.437,8.437l-52.335,52.341
			c13.628,15.436,22.31,35.264,23.671,57.085h73.995v11.934h-73.989C274.912,208.897,266.224,228.719,252.59,244.155z"/>
	</g>
</g>
<g>
</g>
<g>
</g>
<g>
</g>
<g>
</g>
<g>
</g>
<g>
</g>
<g>
</g>
<g>
</g>
<g>
</g>
<g>
</g>
<g>
</g>
<g>
</g>
<g>
</g>
<g>
</g>
<g>
</g>
</svg>
